<svg width="218" height="218" viewBox="0 0 218 218" fill="none" xmlns="http://www.w3.org/2000/svg">
<path d="M109 0C48.803 0 0 48.803 0 109C0 169.197 48.803 218 109 218C169.197 218 218 169.197 218 109C218 48.803 169.201 0 109 0ZM142.73 122.51C127.828 152.945 96.4437 174.63 60.0905 180.727C57.753 181.119 56.8886 177.768 59.1197 176.963C73.0002 171.947 99.85 158.229 113.543 136.582C124.562 120.432 131.379 88.4688 63.6671 95.6134C61.4615 95.8476 60.5035 92.369 62.5388 91.5046C84.1897 82.3248 100.693 80.4769 117.26 80.2768C136.974 80.4727 159.315 89.9463 142.73 122.51ZM144.34 72.3573C135.645 72.3573 128.586 64.574 128.586 54.9726C128.586 45.3713 135.633 37.5837 144.34 37.5837C153.047 37.5837 160.094 45.367 160.094 54.9726C160.094 64.5782 153.013 72.3573 144.34 72.3573Z" fill="#003357"/>
</svg>
